<svg width="108" height="40" viewBox="0 0 108 40" fill="none" xmlns="http://www.w3.org/2000/svg">
<path fill-rule="evenodd" clip-rule="evenodd" d="M103.941 40H71.3989C69.1614 40 67.3408 38.2089 67.3408 36.0082V3.99178C67.3408 1.79035 69.1614 0 71.3989 0H103.941C106.179 0 108 1.79035 108 3.99178V36.0082C108 38.2089 106.179 40 103.941 40Z" fill="#7EBC0A"/>
<path fill-rule="evenodd" clip-rule="evenodd" d="M18.9707 13.7334C15.9103 13.7334 13.4205 16.2278 13.4205 19.2937C13.4205 22.3598 15.9103 24.8542 18.9707 24.8542C22.0313 24.8542 24.5209 22.3598 24.5209 19.2937C24.5209 16.2278 22.0313 13.7334 18.9707 13.7334ZM18.9707 27.2536C14.5757 27.2536 11 23.6828 11 19.2937C11 14.9048 14.5757 11.334 18.9707 11.334C23.366 11.334 26.9416 14.9048 26.9416 19.2937C26.9416 23.6828 23.366 27.2536 18.9707 27.2536Z" fill="#5D837E"/>
<path fill-rule="evenodd" clip-rule="evenodd" d="M34.2068 27.2535C31.164 27.2535 28.689 24.7745 28.689 21.7272V12.5915C28.689 11.929 29.2307 11.3918 29.899 11.3918C30.5672 11.3918 31.1092 11.929 31.1092 12.5915V21.7272C31.1092 23.4514 32.4989 24.8541 34.2068 24.8541C35.9149 24.8541 37.3046 23.4514 37.3046 21.7272V12.4426C37.3046 11.7802 37.8463 11.2429 38.5148 11.2429C39.1831 11.2429 39.7248 11.7802 39.7248 12.4426V21.7272C39.7248 24.7745 37.2493 27.2535 34.2068 27.2535Z" fill="#5D837E"/>
<path fill-rule="evenodd" clip-rule="evenodd" d="M42.8227 27.2535C39.7802 27.2535 37.3047 24.7745 37.3047 21.7272V12.4426C37.3047 11.7802 37.8464 11.2429 38.5149 11.2429C39.1832 11.2429 39.7249 11.7802 39.7249 12.4426V21.7272C39.7249 23.4514 41.1146 24.8541 42.8227 24.8541C44.5308 24.8541 45.9205 23.4514 45.9205 21.7272V12.5915C45.9205 11.929 46.4625 11.3918 47.1305 11.3918C47.7991 11.3918 48.341 11.929 48.341 12.5915V21.7272C48.341 24.7745 45.8655 27.2535 42.8227 27.2535Z" fill="#5D837E"/>
<path fill-rule="evenodd" clip-rule="evenodd" d="M51.5398 27.2536C50.8718 27.2536 50.3296 26.7163 50.3296 26.0539V12.5916C50.3296 11.9291 50.8718 11.3918 51.5398 11.3918C52.2083 11.3918 52.7503 11.9291 52.7503 12.5916V26.0539C52.7503 26.7163 52.2083 27.2536 51.5398 27.2536Z" fill="#5D837E"/>
<path fill-rule="evenodd" clip-rule="evenodd" d="M64.0069 27.2536C63.3384 27.2536 62.7967 26.7164 62.7967 26.0539V18.6997C62.7967 15.9613 60.5755 13.7334 57.8449 13.7334C55.1146 13.7334 52.8934 15.9613 52.8934 18.6997V26.0539C52.8934 26.7164 52.3517 27.2536 51.6834 27.2536C51.0149 27.2536 50.4731 26.7164 50.4731 26.0539V18.6997C50.4731 14.6383 53.7802 11.334 57.8449 11.334C61.9099 11.334 65.2172 14.6383 65.2172 18.6997V26.0539C65.2172 26.7164 64.6754 27.2536 64.0069 27.2536Z" fill="#5D837E"/>
<path fill-rule="evenodd" clip-rule="evenodd" d="M7.16864 27.2535C4.84969 27.2535 2.89062 25.2706 2.89062 22.9236V8.36743C2.89062 7.70497 3.43259 7.16772 4.1011 7.16772C4.76938 7.16772 5.31134 7.70497 5.31134 8.36743V22.9236C5.31134 23.97 6.1617 24.8541 7.16864 24.8541C7.65316 24.8541 8.17963 24.5812 8.57669 24.124C9.01283 23.622 9.77716 23.5653 10.2834 23.9976C10.7901 24.43 10.847 25.1874 10.4109 25.6895C9.54765 26.6834 8.36577 27.2535 7.16864 27.2535Z" fill="#5D837E"/>
<path fill-rule="evenodd" clip-rule="evenodd" d="M7.54408 13.8704H1.21024C0.541723 13.8704 0 13.3334 0 12.6707C0 12.0082 0.541723 11.4712 1.21024 11.4712H7.54408C8.2126 11.4712 8.75432 12.0082 8.75432 12.6707C8.75432 13.3334 8.2126 13.8704 7.54408 13.8704Z" fill="#5D837E"/>
<path fill-rule="evenodd" clip-rule="evenodd" d="M73.7306 22.5908C74.0762 24.1288 76.7645 24.9151 79.2813 24.9151C80.9711 24.9151 84.5913 24.1631 84.5913 21.8046C84.5913 19.6171 81.972 19.5145 79.1788 19.3092C75.4537 18.9676 71.4548 18.6598 71.4548 14.4556C71.4548 10.7981 75.6611 9.22583 78.9715 9.22583C81.6265 9.22583 85.3158 9.67023 86.5241 12.7465C87.0056 14.2845 84.627 14.934 84.179 13.6351C83.4211 11.6526 80.523 11.5159 78.9715 11.5159C76.9719 11.5159 73.9713 12.3704 73.9713 14.4896C73.9713 16.6773 76.5238 16.6431 79.2813 16.8482C83.0755 17.19 87.1104 17.5319 87.1104 21.8046C87.1104 26.1115 82.1436 27.1711 79.2813 27.1711C76.419 27.1711 72.0063 26.4534 71.3168 23.0352C70.9031 21.5995 73.4201 20.8817 73.7306 22.5908Z" fill="white"/>
<path fill-rule="evenodd" clip-rule="evenodd" d="M95.6809 14.082C92.9377 14.082 90.7069 16.2934 90.7069 19.0113C90.7069 21.7294 92.9377 23.9403 95.6809 23.9403C98.4216 23.9403 100.652 21.7294 100.652 19.0113C100.652 16.2934 98.4216 14.082 95.6809 14.082ZM95.6809 26.7633C91.3671 26.7633 87.8589 23.2857 87.8589 19.0113C87.8589 14.737 91.3671 11.2595 95.6809 11.2595C99.9922 11.2595 103.5 14.737 103.5 19.0113C103.5 23.2857 99.9922 26.7633 95.6809 26.7633Z" fill="white"/>
<path fill-rule="evenodd" clip-rule="evenodd" d="M103.445 26.8557C102.997 26.8016 102.535 26.7702 102.073 26.8078C101.613 26.8458 101.148 26.9174 100.7 27.0525C100.254 27.1846 99.8156 27.3533 99.3985 27.564C98.9862 27.7748 98.5882 28.0169 98.2116 28.2837C97.8208 28.5641 97.4514 28.8693 97.1034 29.1932V21.4495C97.1034 20.6703 96.4671 20.0381 95.6806 20.0381C94.8941 20.0381 94.2554 20.6703 94.2554 21.4495V34.59C94.2554 35.3694 94.8941 36.0014 95.6806 36.0014C96.4671 36.0014 97.1034 35.3694 97.1034 34.59C97.1034 34.59 97.1034 34.0854 97.1034 33.8024C97.1034 32.2383 99.7775 27.8381 103.381 27.8381L103.414 27.8362C103.65 27.8232 103.848 27.6443 103.879 27.4041C103.912 27.134 103.717 26.8886 103.445 26.8557Z" fill="white"/>
</svg>
